<?xml version='1.0'?>
<!-- patch='hydrofoilFlap' time='70' index='70' -->
<VTKFile type='PolyData' version='0.1' byte_order='LittleEndian' header_type='UInt64'>
  <PolyData>
    <FieldData>
      <DataArray type='Float32' Name='TimeValue' NumberOfTuples='1' format='ascii'>
70
      </DataArray>
    </FieldData>
    <Piece NumberOfPoints='154' NumberOfPolys='76'>
      <Points>
        <DataArray type='Float32' Name='Points' NumberOfComponents='3' format='ascii'>
0 0 0 0.0242857 0 0 0.0242857 0 0.05
0 0 0.05 0.0485714 0 0 0.0485714 0 0.05
0.0728571 0 0 0.0728571 0 0.05 0.0971429 0 0
0.0971429 0 0.05 0.121429 0 0 0.121429 0 0.05
0.145714 0 0 0.145714 0 0.05 0.17 0 0
0.17 0 0.05 0.194286 0 0 0.194286 0 0.05
0.218571 0 0 0.218571 0 0.05 0.242857 0 0
0.242857 0 0.05 0.267143 0 0 0.267143 0 0.05
0.291429 0 0 0.291429 0 0.05 0.315714 0 0
0.315714 0 0.05 0.34 0 0 0.34 0 0.05
0.364524 9.58333e-05 0 0.364524 9.58333e-05 0.05 0.389049 0.000191667 0
0.389049 0.000191667 0.05 0.413573 0.0002875 0 0.413573 0.0002875 0.05
0.438098 0.000383333 0 0.438098 0.000383333 0.05 0.462622 0.000479167 0
0.462622 0.000479167 0.05 0.487147 0.000575 0 0.487147 0.000575 0.05
0.511671 0.000670833 0 0.511671 0.000670833 0.05 0.536196 0.000766667 0
0.536196 0.000766667 0.05 0.56072 0.0008625 0 0.56072 0.0008625 0.05
0.585244 0.000958333 0 0.585244 0.000958333 0.05 0.609769 0.00105417 0
0.609769 0.00105417 0.05 0.634293 0.00115 0 0.634293 0.00115 0.05
0.658818 0.00124583 0 0.658818 0.00124583 0.05 0.683342 0.00134167 0
0.683342 0.00134167 0.05 0.707867 0.0014375 0 0.707867 0.0014375 0.05
0.732391 0.00153333 0 0.732391 0.00153333 0.05 0.756916 0.00162917 0
0.756916 0.00162917 0.05 0.78144 0.001725 0 0.78144 0.001725 0.05
0.78674 0.00242276 0 0.78674 0.00242276 0.05 0.79204 0.00312052 0
0.79204 0.00312052 0.05 0.79734 0.00381828 0 0.79734 0.00381828 0.05
0.80264 0.00451603 0 0.80264 0.00451603 0.05 0.80794 0.00521379 0
0.80794 0.00521379 0.05 0.81324 0.00591155 0 0.81324 0.00591155 0.05
0.81854 0.00660931 0 0.81854 0.00660931 0.05 0.82384 0.00730707 0
0.82384 0.00730707 0.05 0.84086 0.00933217 0 0.84086 0.00933217 0.05
0.85788 0.0113573 0 0.85788 0.0113573 0.05 0.8749 0.0133824 0
0.8749 0.0133824 0.05 0.89192 0.0154075 0 0.89192 0.0154075 0.05
0.90894 0.0174326 0 0.90894 0.0174326 0.05 0.92596 0.0194577 0
0.92596 0.0194577 0.05 0.94298 0.0214828 0 0.94298 0.0214828 0.05
0.96 0.0235079 0 0.96 0.0235079 0.05 0.98356 0.0242422 0
0.98356 0.0242422 0.05 1.00712 0.0249766 0 1.00712 0.0249766 0.05
1.03068 0.025711 0 1.03068 0.025711 0.05 1.05424 0.0264454 0
1.05424 0.0264454 0.05 1.0778 0.0271797 0 1.0778 0.0271797 0.05
1.10136 0.0279141 0 1.10136 0.0279141 0.05 1.12492 0.0286485 0
1.12492 0.0286485 0.05 1.14848 0.0293829 0 1.14848 0.0293829 0.05
1.17204 0.0301172 0 1.17204 0.0301172 0.05 1.1956 0.0308516 0
1.1956 0.0308516 0.05 1.21916 0.031586 0 1.21916 0.031586 0.05
1.24272 0.0323204 0 1.24272 0.0323204 0.05 1.26628 0.0330547 0
1.26628 0.0330547 0.05 1.28984 0.0337891 0 1.28984 0.0337891 0.05
1.3134 0.0345235 0 1.3134 0.0345235 0.05 1.33696 0.0352579 0
1.33696 0.0352579 0.05 1.36052 0.0359922 0 1.36052 0.0359922 0.05
1.38408 0.0367266 0 1.38408 0.0367266 0.05 1.40764 0.037461 0
1.40764 0.037461 0.05 1.4312 0.0381954 0 1.4312 0.0381954 0.05
1.45476 0.0389297 0 1.45476 0.0389297 0.05 1.47832 0.0396641 0
1.47832 0.0396641 0.05 1.50188 0.0403985 0 1.50188 0.0403985 0.05
1.52544 0.0411329 0 1.52544 0.0411329 0.05 1.549 0.0418672 0
1.549 0.0418672 0.05 1.57256 0.0426016 0 1.57256 0.0426016 0.05
1.59612 0.043336 0 1.59612 0.043336 0.05 1.61968 0.0440703 0
1.61968 0.0440703 0.05
        </DataArray>
      </Points>
      <Polys>
        <DataArray type='Int32' Name='connectivity' format='ascii'>
0 1 2 3 1 4 5 2 4
6 7 5 6 8 9 7 8 10
11 9 10 12 13 11 12 14 15
13 14 16 17 15 16 18 19 17
18 20 21 19 20 22 23 21 22
24 25 23 24 26 27 25 26 28
29 27 28 30 31 29 30 32 33
31 32 34 35 33 34 36 37 35
36 38 39 37 38 40 41 39 40
42 43 41 42 44 45 43 44 46
47 45 46 48 49 47 48 50 51
49 50 52 53 51 52 54 55 53
54 56 57 55 56 58 59 57 58
60 61 59 60 62 63 61 62 64
65 63 64 66 67 65 66 68 69
67 68 70 71 69 70 72 73 71
72 74 75 73 74 76 77 75 76
78 79 77 78 80 81 79 80 82
83 81 82 84 85 83 84 86 87
85 86 88 89 87 88 90 91 89
90 92 93 91 92 94 95 93 94
96 97 95 96 98 99 97 98 100
101 99 100 102 103 101 102 104 105
103 104 106 107 105 106 108 109 107
108 110 111 109 110 112 113 111 112
114 115 113 114 116 117 115 116 118
119 117 118 120 121 119 120 122 123
121 122 124 125 123 124 126 127 125
126 128 129 127 128 130 131 129 130
132 133 131 132 134 135 133 134 136
137 135 136 138 139 137 138 140 141
139 140 142 143 141 142 144 145 143
144 146 147 145 146 148 149 147 148
150 151 149 150 152 153 151
        </DataArray>
        <DataArray type='Int32' Name='offsets' format='ascii'>
4 8 12 16 20 24 28 32 36
40 44 48 52 56 60 64 68 72
76 80 84 88 92 96 100 104 108
112 116 120 124 128 132 136 140 144
148 152 156 160 164 168 172 176 180
184 188 192 196 200 204 208 212 216
220 224 228 232 236 240 244 248 252
256 260 264 268 272 276 280 284 288
292 296 300 304
        </DataArray>
      </Polys>
      <CellData>
        <DataArray type='Float32' Name='p' format='ascii'>
7.98753 7.40958 7.11836 6.97471 6.85919 6.78166 6.7468 6.73487 6.72768
6.71762 6.70351 6.68599 6.667 6.64525 6.63165 6.60148 6.56915 6.53889
6.50944 6.48058 6.45273 6.42607 6.40062 6.3765 6.35402 6.33356 6.3159
6.30143 6.29313 6.28692 6.30332 6.29159 6.38263 6.37231 6.34683 6.32049
6.28773 6.24526 6.19408 6.13824 5.99739 5.79038 5.56563 5.31823 5.05259
4.7725 4.45474 4.14376 3.50955 3.53315 3.53774 3.44905 3.35531 3.26455
3.16217 3.04777 2.92636 2.80058 2.67122 2.53877 2.40364 2.26605 2.12612
1.98385 1.83925 1.69228 1.54288 1.39103 1.23664 1.07974 0.920066 0.758072
0.592266 0.42646 0.25089 0.0903074
        </DataArray>
        <DataArray type='Float32' Name='U' NumberOfComponents='3' format='ascii'>
0 0 0 0 0 0 0 0 0
0 0 0 0 0 0 0 0 0
0 0 0 0 0 0 0 0 0
0 0 0 0 0 0 0 0 0
0 0 0 0 0 0 0 0 0
0 0 0 0 0 0 0 0 0
0 0 0 0 0 0 0 0 0
0 0 0 0 0 0 0 0 0
0 0 0 0 0 0 0 0 0
0 0 0 0 0 0 0 0 0
0 0 0 0 0 0 0 0 0
0 0 0 0 0 0 0 0 0
0 0 0 0 0 0 0 0 0
0 0 0 0 0 0 0 0 0
0 0 0 0 0 0 0 0 0
0 0 0 0 0 0 0 0 0
0 0 0 0 0 0 0 0 0
0 0 0 0 0 0 0 0 0
0 0 0 0 0 0 0 0 0
0 0 0 0 0 0 0 0 0
0 0 0 0 0 0 0 0 0
0 0 0 0 0 0 0 0 0
0 0 0 0 0 0 0 0 0
0 0 0 0 0 0 0 0 0
0 0 0 0 0 0 0 0 0
0 0 0
        </DataArray>
      </CellData>
      <PointData>
        <DataArray type='Float32' Name='p' format='ascii'>
7.98753 7.69855 7.69855 7.98753 7.26397 7.26397 7.04654 7.04654 6.91695
6.91695 6.82043 6.82043 6.76423 6.76423 6.74084 6.74084 6.73127 6.73127
6.72265 6.72265 6.71057 6.71057 6.69475 6.69475 6.6765 6.6765 6.65613
6.65613 6.63846 6.63846 6.61657 6.61657 6.58532 6.58532 6.55402 6.55402
6.52417 6.52417 6.49501 6.49501 6.46665 6.46665 6.4394 6.4394 6.41334
6.41334 6.38856 6.38856 6.36526 6.36526 6.34379 6.34379 6.32473 6.32473
6.30866 6.30866 6.29728 6.29728 6.29002 6.29002 6.29512 6.29512 6.29746
6.29746 6.33943 6.33943 6.37747 6.37747 6.35957 6.35957 6.33366 6.33366
6.30411 6.30411 6.2665 6.2665 6.21967 6.21967 6.16616 6.16616 6.06957
6.06957 5.89389 5.89389 5.67801 5.67801 5.44193 5.44193 5.18541 5.18541
4.91254 4.91254 4.61362 4.61362 4.29925 4.29925 3.83376 3.83376 3.52135
3.52135 3.53544 3.53544 3.49339 3.49339 3.40218 3.40218 3.30993 3.30993
3.21336 3.21336 3.10497 3.10497 2.98707 2.98707 2.86347 2.86347 2.7359
2.7359 2.60499 2.60499 2.4712 2.4712 2.33484 2.33484 2.19608 2.19608
2.05498 2.05498 1.91155 1.91155 1.76577 1.76577 1.61758 1.61758 1.46696
1.46696 1.31384 1.31384 1.15819 1.15819 0.999901 0.999901 0.839069 0.839069
0.675169 0.675169 0.509363 0.509363 0.338675 0.338675 0.170599 0.170599 0.0903074
0.0903074
        </DataArray>
        <DataArray type='Float32' Name='U' NumberOfComponents='3' format='ascii'>
0 0 0 0 0 0 0 0 0
0 0 0 0 0 0 0 0 0
0 0 0 0 0 0 0 0 0
0 0 0 0 0 0 0 0 0
0 0 0 0 0 0 0 0 0
0 0 0 0 0 0 0 0 0
0 0 0 0 0 0 0 0 0
0 0 0 0 0 0 0 0 0
0 0 0 0 0 0 0 0 0
0 0 0 0 0 0 0 0 0
0 0 0 0 0 0 0 0 0
0 0 0 0 0 0 0 0 0
0 0 0 0 0 0 0 0 0
0 0 0 0 0 0 0 0 0
0 0 0 0 0 0 0 0 0
0 0 0 0 0 0 0 0 0
0 0 0 0 0 0 0 0 0
0 0 0 0 0 0 0 0 0
0 0 0 0 0 0 0 0 0
0 0 0 0 0 0 0 0 0
0 0 0 0 0 0 0 0 0
0 0 0 0 0 0 0 0 0
0 0 0 0 0 0 0 0 0
0 0 0 0 0 0 0 0 0
0 0 0 0 0 0 0 0 0
0 0 0 0 0 0 0 0 0
0 0 0 0 0 0 0 0 0
0 0 0 0 0 0 0 0 0
0 0 0 0 0 0 0 0 0
0 0 0 0 0 0 0 0 0
0 0 0 0 0 0 0 0 0
0 0 0 0 0 0 0 0 0
0 0 0 0 0 0 0 0 0
0 0 0 0 0 0 0 0 0
0 0 0 0 0 0 0 0 0
0 0 0 0 0 0 0 0 0
0 0 0 0 0 0 0 0 0
0 0 0 0 0 0 0 0 0
0 0 0 0 0 0 0 0 0
0 0 0 0 0 0 0 0 0
0 0 0 0 0 0 0 0 0
0 0 0 0 0 0 0 0 0
0 0 0 0 0 0 0 0 0
0 0 0 0 0 0 0 0 0
0 0 0 0 0 0 0 0 0
0 0 0 0 0 0 0 0 0
0 0 0 0 0 0 0 0 0
0 0 0 0 0 0 0 0 0
0 0 0 0 0 0 0 0 0
0 0 0 0 0 0 0 0 0
0 0 0 0 0 0 0 0 0
0 0 0
        </DataArray>
      </PointData>
    </Piece>
  </PolyData>
</VTKFile>
